<?xml version="1.0" encoding="iso-8859-1"?>
<!-- Generator: Adobe Illustrator 19.0.0, SVG Export Plug-In . SVG Version: 6.00 Build 0)  -->
<svg version="1.1" id="Layer_1" xmlns="http://www.w3.org/2000/svg" xmlns:xlink="http://www.w3.org/1999/xlink" x="0px" y="0px"
	 viewBox="0 0 509.287 509.287" style="enable-background:new 0 0 509.287 509.287;" xml:space="preserve">
<circle style="fill:#F3572F;" cx="254.644" cy="254.644" r="254.644"/>
<path style="fill:#DEDEDF;" d="M352.636,463.173h-26.787v-47.131h26.787c40.35,0,73.24-32.89,73.24-73.24V242.098
	c0-4.408-3.73-8.138-8.138-8.138h-71.544v-47.131h71.544c30.177,0,54.93,24.752,54.93,54.93v100.705
	C473.007,409.261,419.094,463.173,352.636,463.173z"/>
<path style="fill:#F1F3F7;" d="M112.572,465.886c40.689,27.465,89.515,43.401,142.072,43.401c38.654,0,75.274-8.477,107.825-24.074
	V151.905H112.572V465.886z"/>
<path style="fill:#FAD404;" d="M128.509,212.938v249.558c0,8.477,7.46,15.597,16.954,15.597h184.456
	c9.494,0,16.954-6.781,16.954-15.597V212.938H128.509z"/>
<path style="fill:#FFFFFF;" d="M342.803,81.717c-1.356,0-2.713,0-4.069,0.339c-10.172-17.632-29.16-29.838-51.2-29.838
	c-11.868,0-23.057,3.73-32.551,9.833c-10.172-16.615-28.821-27.804-49.844-27.804c-30.856,0-55.947,24.074-58.321,54.252
	c-3.391-1.017-7.121-1.695-10.511-1.695c-19.666,0-35.942,14.919-37.976,34.246c-15.936,4.408-27.804,18.988-27.804,36.62v185.134
	c0,14.241,11.528,25.77,25.77,25.77h3.391c14.241,0,25.77-11.528,25.77-25.77v-36.281c2.374,1.017,5.086,1.356,7.799,1.356
	c10.85,0,19.666-7.799,21.023-17.971h0.678v29.838c0,11.868,9.494,21.362,21.362,21.362l0,0c11.868,0,21.362-9.494,21.362-21.362
	V153.261h162.416c11.868-6.442,20.005-18.988,20.005-33.568C381.118,98.67,363.825,81.717,342.803,81.717z"/>
<g>
</g>
<g>
</g>
<g>
</g>
<g>
</g>
<g>
</g>
<g>
</g>
<g>
</g>
<g>
</g>
<g>
</g>
<g>
</g>
<g>
</g>
<g>
</g>
<g>
</g>
<g>
</g>
<g>
</g>
</svg>
